<svg viewBox="0 0 1000 600" xmlns="http://www.w3.org/2000/svg">

<path id="Minnesota" class="state" d="M650 120 L720 120 L720 200 L650 200 Z"/>
<path id="Iowa" class="state" d="M650 200 L720 200 L720 260 L650 260 Z"/>
<path id="Wisconsin" class="state" d="M720 140 L780 140 L780 210 L720 210 Z"/>
<path id="Illinois" class="state" d="M720 210 L780 210 L780 300 L720 300 Z"/>
<path id="Texas" class="state" d="M400 300 L520 300 L520 420 L400 420 Z"/>
<path id="California" class="state" d="M100 200 L200 200 L200 350 L100 350 Z"/>
<path id="Florida" class="state" d="M850 350 L920 350 L920 420 L850 420 Z"/>
<path id="NewYork" class="state" d="M850 150 L920 150 L920 220 L850 220 Z"/>

</svg>
